<mxfile host="app.diagrams.net" modified="2021-06-09T11:54:49.048Z" agent="5.0 (Macintosh; Intel Mac OS X 10_15_7) AppleWebKit/537.36 (KHTML, like Gecko) Chrome/91.0.4472.77 Safari/537.36" etag="OOIdSBKJcPpyMuG1QAY1" version="14.7.6" type="github">
  <diagram name="Page-1" id="3e8102d1-ef87-2e61-34e1-82d9a586fe2e">
    <mxGraphModel dx="831" dy="482" grid="1" gridSize="10" guides="1" tooltips="1" connect="1" arrows="1" fold="1" page="1" pageScale="1" pageWidth="1100" pageHeight="850" background="none" math="0" shadow="0">
      <root>
        <mxCell id="0" />
        <mxCell id="1" parent="0" />
        <mxCell id="70666756c84bb93c-1" value="" style="ellipse;whiteSpace=wrap;html=1;rounded=0;shadow=0;comic=0;strokeWidth=1;fontFamily=Verdana;fontSize=14;strokeColor=none;fillColor=#0069D1;" parent="1" vertex="1">
          <mxGeometry x="270" y="120" width="500" height="500" as="geometry" />
        </mxCell>
        <mxCell id="70666756c84bb93c-2" value="The Overall Solution" style="ellipse;whiteSpace=wrap;html=1;rounded=0;shadow=0;comic=0;strokeWidth=1;fontFamily=Verdana;fontSize=22;strokeColor=none;fillColor=#ffffff;fontColor=#0069D1;fontStyle=1" parent="1" vertex="1">
          <mxGeometry x="400" y="230" width="260" height="260" as="geometry" />
        </mxCell>
        <mxCell id="70666756c84bb93c-8" value="Information&lt;br&gt;Management&lt;br&gt;System" style="shadow=0;dashed=0;html=1;strokeColor=none;fillColor=#ffffff;labelPosition=center;verticalLabelPosition=bottom;verticalAlign=top;shape=mxgraph.office.services.central_management_service;rounded=0;comic=0;fontFamily=Verdana;fontSize=14;fontColor=#FFFFFF;" parent="1" vertex="1">
          <mxGeometry x="317" y="313" width="51" height="54" as="geometry" />
        </mxCell>
        <mxCell id="70666756c84bb93c-10" value="Sensors &amp;amp;&lt;br&gt;Monitors" style="shadow=0;dashed=0;html=1;strokeColor=none;fillColor=#ffffff;labelPosition=center;verticalLabelPosition=bottom;verticalAlign=top;shape=mxgraph.office.security.token_service;rounded=0;comic=0;fontFamily=Verdana;fontSize=14;fontColor=#FFFFFF;" parent="1" vertex="1">
          <mxGeometry x="430" y="491" width="60" height="56" as="geometry" />
        </mxCell>
        <mxCell id="70666756c84bb93c-11" value="Water&amp;nbsp;&lt;br&gt;Storage" style="shadow=0;dashed=0;html=1;strokeColor=none;fillColor=#ffffff;labelPosition=center;verticalLabelPosition=bottom;verticalAlign=top;shape=mxgraph.office.concepts.on_premises;rounded=0;comic=0;fontFamily=Verdana;fontSize=14;fontColor=#FFFFFF;rotation=0;" parent="1" vertex="1">
          <mxGeometry x="580" y="492" width="34" height="55" as="geometry" />
        </mxCell>
        <mxCell id="70666756c84bb93c-13" value="Long Term&lt;br&gt;Plan" style="shadow=0;dashed=0;html=1;strokeColor=none;shape=mxgraph.mscae.general.continuous_cycle;fillColor=#ffffff;rounded=0;comic=0;fontFamily=Verdana;fontSize=14;fontColor=#FFFFFF;verticalAlign=top;labelPosition=center;verticalLabelPosition=bottom;align=center;" parent="1" vertex="1">
          <mxGeometry x="550" y="135" width="48" height="50" as="geometry" />
        </mxCell>
        <mxCell id="70666756c84bb93c-15" value="Finance" style="shape=mxgraph.signs.travel.euro;html=1;fillColor=#ffffff;strokeColor=none;verticalLabelPosition=bottom;verticalAlign=top;align=center;rounded=0;shadow=0;dashed=0;comic=0;fontFamily=Verdana;fontSize=14;fontColor=#FFFFFF;" parent="1" vertex="1">
          <mxGeometry x="637" y="189" width="45" height="51" as="geometry" />
        </mxCell>
        <mxCell id="_EVjPZlJTueMnQn27PBO-1" value="" style="points=[[0,0,0],[0.25,0,0],[0.5,0,0],[0.75,0,0],[1,0,0],[0,1,0],[0.25,1,0],[0.5,1,0],[0.75,1,0],[1,1,0],[0,0.25,0],[0,0.5,0],[0,0.75,0],[1,0.25,0],[1,0.5,0],[1,0.75,0]];outlineConnect=0;fontColor=#232F3E;gradientDirection=north;strokeColor=#ffffff;dashed=0;verticalLabelPosition=bottom;verticalAlign=top;align=center;html=1;fontSize=12;fontStyle=0;aspect=fixed;shape=mxgraph.aws4.resourceIcon;resIcon=mxgraph.aws4.machine_learning;gradientColor=#FFFFFF;fillColor=none;" vertex="1" parent="1">
          <mxGeometry x="344" y="428" width="64" height="64" as="geometry" />
        </mxCell>
        <mxCell id="_EVjPZlJTueMnQn27PBO-2" value="Machine &lt;br style=&quot;font-size: 15px;&quot;&gt;Learning" style="text;html=1;resizable=0;autosize=1;align=center;verticalAlign=middle;points=[];fillColor=none;strokeColor=none;rounded=0;fontSize=15;fontColor=#FFFFFF;" vertex="1" parent="1">
          <mxGeometry x="344" y="490" width="70" height="40" as="geometry" />
        </mxCell>
        <mxCell id="_EVjPZlJTueMnQn27PBO-8" value="" style="shape=mxgraph.cisco.misc.optical_transport;html=1;pointerEvents=1;dashed=0;strokeColor=#ffffff;strokeWidth=2;verticalLabelPosition=bottom;verticalAlign=top;align=center;outlineConnect=0;fontSize=15;fontColor=#FFFFFF;fillColor=none;" vertex="1" parent="1">
          <mxGeometry x="660" y="410" width="57" height="67" as="geometry" />
        </mxCell>
        <mxCell id="_EVjPZlJTueMnQn27PBO-9" value="Water &lt;br&gt;Transport" style="text;html=1;resizable=0;autosize=1;align=center;verticalAlign=middle;points=[];fillColor=none;strokeColor=none;rounded=0;fontSize=15;fontColor=#FFFFFF;" vertex="1" parent="1">
          <mxGeometry x="650" y="477" width="80" height="40" as="geometry" />
        </mxCell>
        <mxCell id="_EVjPZlJTueMnQn27PBO-16" value="" style="outlineConnect=0;dashed=0;verticalLabelPosition=bottom;verticalAlign=top;align=center;html=1;shape=mxgraph.aws3.certificate_manager_2;gradientColor=none;fontSize=15;fontColor=#FFFFFF;fillColor=none;" vertex="1" parent="1">
          <mxGeometry x="676.5" y="290" width="73.5" height="63" as="geometry" />
        </mxCell>
        <mxCell id="_EVjPZlJTueMnQn27PBO-17" value="Fair&amp;nbsp;&lt;br&gt;Contract" style="text;html=1;resizable=0;autosize=1;align=center;verticalAlign=middle;points=[];fillColor=none;strokeColor=none;rounded=0;fontSize=15;fontColor=#FFFFFF;" vertex="1" parent="1">
          <mxGeometry x="678.25" y="358" width="70" height="40" as="geometry" />
        </mxCell>
        <mxCell id="_EVjPZlJTueMnQn27PBO-19" value="" style="verticalLabelPosition=bottom;html=1;verticalAlign=top;align=center;points=[[0,0.5,0],[0.125,0.25,0],[0.25,0,0],[0.5,0,0],[0.75,0,0],[0.875,0.25,0],[1,0.5,0],[0.875,0.75,0],[0.75,1,0],[0.5,1,0],[0.125,0.75,0]];pointerEvents=1;shape=mxgraph.cisco_safe.compositeIcon;bgIcon=mxgraph.cisco_safe.design.blank_device;resIcon=mxgraph.cisco_safe.design.sensor;fontSize=15;fontColor=#FFFFFF;fillColor=none;strokeColor=none;" vertex="1" parent="1">
          <mxGeometry x="700" y="250" width="50" height="45" as="geometry" />
        </mxCell>
        <mxCell id="_EVjPZlJTueMnQn27PBO-23" value="" style="shape=mxgraph.signs.food.drinking_water_2;html=1;pointerEvents=1;strokeColor=none;verticalLabelPosition=bottom;verticalAlign=top;align=center;fontSize=15;fontColor=#FFFFFF;" vertex="1" parent="1">
          <mxGeometry x="360" y="189" width="57" height="71" as="geometry" />
        </mxCell>
        <mxCell id="_EVjPZlJTueMnQn27PBO-24" value="Water&lt;br&gt;Resources" style="text;html=1;resizable=0;autosize=1;align=center;verticalAlign=middle;points=[];fillColor=none;strokeColor=none;rounded=0;fontSize=15;fontColor=#FFFFFF;" vertex="1" parent="1">
          <mxGeometry x="328" y="260" width="90" height="40" as="geometry" />
        </mxCell>
        <mxCell id="_EVjPZlJTueMnQn27PBO-35" value="" style="shape=image;html=1;verticalAlign=top;verticalLabelPosition=bottom;labelBackgroundColor=#ffffff;imageAspect=0;aspect=fixed;image=https://cdn0.iconfinder.com/data/icons/coronavirus-33/512/laboratory-research-medical-chemistry-lab-128.png;fontSize=15;fontColor=#FFFFFF;strokeColor=#000000;fillColor=#ffffff;gradientColor=#FFFFFF;" vertex="1" parent="1">
          <mxGeometry x="436" y="135" width="78" height="78" as="geometry" />
        </mxCell>
        <mxCell id="_EVjPZlJTueMnQn27PBO-36" value="Clean Water" style="text;html=1;resizable=0;autosize=1;align=center;verticalAlign=middle;points=[];fillColor=none;strokeColor=none;rounded=0;fontSize=15;fontColor=#FFFFFF;" vertex="1" parent="1">
          <mxGeometry x="429" y="212" width="100" height="20" as="geometry" />
        </mxCell>
      </root>
    </mxGraphModel>
  </diagram>
</mxfile>
